# Tiled2Unity generated file. Do not modify by hand.
# Wavefront file for 'tesr3_mesh_0005.obj'

# Vertices (Count = 284)
v -1088 -1184 0
v -1120 -1184 0
v -1120 -1152 0
v -1088 -1152 0
v -1120 -1184 0
v -1152 -1184 0
v -1152 -1152 0
v -1120 -1152 0
v -1216 -1184 0
v -1248 -1184 0
v -1248 -1152 0
v -1216 -1152 0
v -1664 -1184 0
v -1696 -1184 0
v -1696 -1152 0
v -1664 -1152 0
v -1792 -1184 0
v -1824 -1184 0
v -1824 -1152 0
v -1792 -1152 0
v -1088 -1216 0
v -1120 -1216 0
v -1120 -1184 0
v -1088 -1184 0
v -1120 -1216 0
v -1152 -1216 0
v -1152 -1184 0
v -1120 -1184 0
v -1600 -1216 0
v -1632 -1216 0
v -1632 -1184 0
v -1600 -1184 0
v -1632 -1216 0
v -1664 -1216 0
v -1664 -1184 0
v -1632 -1184 0
v -1792 -1216 0
v -1824 -1216 0
v -1824 -1184 0
v -1792 -1184 0
v -1600 -1248 0
v -1632 -1248 0
v -1632 -1216 0
v -1600 -1216 0
v -1632 -1248 0
v -1664 -1248 0
v -1664 -1216 0
v -1632 -1216 0
v -1728 -1248 0
v -1760 -1248 0
v -1760 -1216 0
v -1728 -1216 0
v -1760 -1248 0
v -1792 -1248 0
v -1792 -1216 0
v -1760 -1216 0
v -1056 -1280 0
v -1088 -1280 0
v -1088 -1248 0
v -1056 -1248 0
v -1152 -1280 0
v -1184 -1280 0
v -1184 -1248 0
v -1152 -1248 0
v -1216 -1280 0
v -1248 -1280 0
v -1248 -1248 0
v -1216 -1248 0
v -1248 -1280 0
v -1280 -1280 0
v -1280 -1248 0
v -1248 -1248 0
v -1280 -1280 0
v -1312 -1280 0
v -1312 -1248 0
v -1280 -1248 0
v -1600 -1280 0
v -1632 -1280 0
v -1632 -1248 0
v -1600 -1248 0
v -1632 -1280 0
v -1664 -1280 0
v -1664 -1248 0
v -1632 -1248 0
v -1664 -1280 0
v -1696 -1280 0
v -1696 -1248 0
v -1664 -1248 0
v -1728 -1280 0
v -1760 -1280 0
v -1760 -1248 0
v -1728 -1248 0
v -1760 -1280 0
v -1792 -1280 0
v -1792 -1248 0
v -1760 -1248 0
v -1056 -1312 0
v -1088 -1312 0
v -1088 -1280 0
v -1056 -1280 0
v -1152 -1312 0
v -1184 -1312 0
v -1184 -1280 0
v -1152 -1280 0
v -1216 -1312 0
v -1248 -1312 0
v -1248 -1280 0
v -1216 -1280 0
v -1248 -1312 0
v -1280 -1312 0
v -1280 -1280 0
v -1248 -1280 0
v -1280 -1312 0
v -1312 -1312 0
v -1312 -1280 0
v -1280 -1280 0
v -1664 -1312 0
v -1696 -1312 0
v -1696 -1280 0
v -1664 -1280 0
v -1696 -1312 0
v -1728 -1312 0
v -1728 -1280 0
v -1696 -1280 0
v -1760 -1312 0
v -1792 -1312 0
v -1792 -1280 0
v -1760 -1280 0
v -1056 -1344 0
v -1088 -1344 0
v -1088 -1312 0
v -1056 -1312 0
v -1056 -1376 0
v -1088 -1376 0
v -1088 -1344 0
v -1056 -1344 0
v -1696 -1440 0
v -1728 -1440 0
v -1728 -1408 0
v -1696 -1408 0
v -1728 -1440 0
v -1760 -1440 0
v -1760 -1408 0
v -1728 -1408 0
v -1760 -1440 0
v -1792 -1440 0
v -1792 -1408 0
v -1760 -1408 0
v -1792 -1440 0
v -1824 -1440 0
v -1824 -1408 0
v -1792 -1408 0
v -1696 -1472 0
v -1728 -1472 0
v -1728 -1440 0
v -1696 -1440 0
v -1728 -1472 0
v -1760 -1472 0
v -1760 -1440 0
v -1728 -1440 0
v -1760 -1472 0
v -1792 -1472 0
v -1792 -1440 0
v -1760 -1440 0
v -1792 -1472 0
v -1824 -1472 0
v -1824 -1440 0
v -1792 -1440 0
v -1696 -1504 0
v -1728 -1504 0
v -1728 -1472 0
v -1696 -1472 0
v -1728 -1504 0
v -1760 -1504 0
v -1760 -1472 0
v -1728 -1472 0
v -1760 -1504 0
v -1792 -1504 0
v -1792 -1472 0
v -1760 -1472 0
v -1792 -1504 0
v -1824 -1504 0
v -1824 -1472 0
v -1792 -1472 0
v -1696 -1536 0
v -1728 -1536 0
v -1728 -1504 0
v -1696 -1504 0
v -1728 -1536 0
v -1760 -1536 0
v -1760 -1504 0
v -1728 -1504 0
v -1760 -1536 0
v -1792 -1536 0
v -1792 -1504 0
v -1760 -1504 0
v -1792 -1536 0
v -1824 -1536 0
v -1824 -1504 0
v -1792 -1504 0
v -1696 -1568 0
v -1728 -1568 0
v -1728 -1536 0
v -1696 -1536 0
v -1728 -1568 0
v -1760 -1568 0
v -1760 -1536 0
v -1728 -1536 0
v -1760 -1568 0
v -1792 -1568 0
v -1792 -1536 0
v -1760 -1536 0
v -1792 -1568 0
v -1824 -1568 0
v -1824 -1536 0
v -1792 -1536 0
v -1696 -1600 0
v -1728 -1600 0
v -1728 -1568 0
v -1696 -1568 0
v -1728 -1600 0
v -1760 -1600 0
v -1760 -1568 0
v -1728 -1568 0
v -1760 -1600 0
v -1792 -1600 0
v -1792 -1568 0
v -1760 -1568 0
v -1792 -1600 0
v -1824 -1600 0
v -1824 -1568 0
v -1792 -1568 0
v -1056 -1632 0
v -1088 -1632 0
v -1088 -1600 0
v -1056 -1600 0
v -1088 -1632 0
v -1120 -1632 0
v -1120 -1600 0
v -1088 -1600 0
v -1120 -1632 0
v -1152 -1632 0
v -1152 -1600 0
v -1120 -1600 0
v -1152 -1632 0
v -1184 -1632 0
v -1184 -1600 0
v -1152 -1600 0
v -1728 -1632 0
v -1760 -1632 0
v -1760 -1600 0
v -1728 -1600 0
v -1760 -1632 0
v -1792 -1632 0
v -1792 -1600 0
v -1760 -1600 0
v -1056 -1664 0
v -1088 -1664 0
v -1088 -1632 0
v -1056 -1632 0
v -1088 -1664 0
v -1120 -1664 0
v -1120 -1632 0
v -1088 -1632 0
v -1120 -1664 0
v -1152 -1664 0
v -1152 -1632 0
v -1120 -1632 0
v -1152 -1664 0
v -1184 -1664 0
v -1184 -1632 0
v -1152 -1632 0
v -1088 -1696 0
v -1120 -1696 0
v -1120 -1664 0
v -1088 -1664 0
v -1120 -1696 0
v -1152 -1696 0
v -1152 -1664 0
v -1120 -1664 0
v -1152 -1696 0
v -1184 -1696 0
v -1184 -1664 0
v -1152 -1664 0

# Texture cooridinates (Count = 103)
vt 0 0.9375
vt 0.0625 0.9375
vt 0.0625 1
vt 0 1
vt 0.3125 0.5
vt 0.375 0.5
vt 0.375 0.5625
vt 0.3125 0.5625
vt 0.1875 0.5625
vt 0.25 0.5625
vt 0.25 0.625
vt 0.1875 0.625
vt 0 0.875
vt 0.0625 0.875
vt 0.5 0.1875
vt 0.5625 0.1875
vt 0.5625 0.25
vt 0.5 0.25
vt 0.625 0.1875
vt 0.625 0.25
vt 0.5 0.125
vt 0.5625 0.125
vt 0.625 0.125
vt 0.4375 0.5
vt 0.5 0.5
vt 0.5 0.5625
vt 0.4375 0.5625
vt 0.0625 0.5625
vt 0.125 0.5625
vt 0.125 0.625
vt 0.0625 0.625
vt 0.5625 0.9375
vt 0.625 0.9375
vt 0.625 1
vt 0.5625 1
vt 0.3125 0.4375
vt 0.375 0.4375
vt 0.25 0.9375
vt 0.3125 0.9375
vt 0.3125 1
vt 0.25 1
vt 0.1875 0.9375
vt 0.1875 1
vt 0.375 0.9375
vt 0.375 1
vt 0.5 0.0625
vt 0.5625 0.0625
vt 0.625 0.0625
vt 0.375 0.1875
vt 0.4375 0.1875
vt 0.4375 0.25
vt 0.375 0.25
vt 0.4375 0.4375
vt 0.5 0.4375
vt 0.0625 0.5
vt 0.125 0.5
vt 0.5625 0.875
vt 0.625 0.875
vt 0.25 0.4375
vt 0.25 0.5
vt 0.25 0.875
vt 0.3125 0.875
vt 0.1875 0.875
vt 0.375 0.875
vt 0.375 0.125
vt 0.4375 0.125
vt 0.0625 0.375
vt 0.125 0.375
vt 0.125 0.4375
vt 0.0625 0.4375
vt 0.5625 0.8125
vt 0.625 0.8125
vt 0.5625 0.75
vt 0.625 0.75
vt 0.25 0.8125
vt 0.3125 0.8125
vt 0.25 0.75
vt 0.3125 0.75
vt 0.375 0.8125
vt 0.4375 0.8125
vt 0.4375 0.875
vt 0.375 0.75
vt 0.8125 0.5625
vt 0.875 0.5625
vt 0.875 0.625
vt 0.8125 0.625
vt 0.9375 0.5625
vt 0.9375 0.625
vt 1 0.5625
vt 1 0.625
vt 0.25 0.6875
vt 0.3125 0.6875
vt 0.375 0.6875
vt 0.4375 0.6875
vt 0.4375 0.75
vt 0.8125 0.5
vt 0.875 0.5
vt 0.9375 0.5
vt 1 0.5
vt 0.8125 0.4375
vt 0.875 0.4375
vt 0.9375 0.4375
vt 1 0.4375

# Normal
vn 0 0 -1

# Mesh description
g tesr3_mesh_0005

# Faces
f 1/1/1 2/2/1 3/3/1 4/4/1
f 5/1/1 6/2/1 7/3/1 8/4/1
f 9/5/1 10/6/1 11/7/1 12/8/1
f 13/9/1 14/10/1 15/11/1 16/12/1
f 17/1/1 18/2/1 19/3/1 20/4/1
f 21/13/1 22/14/1 23/2/1 24/1/1
f 25/13/1 26/14/1 27/2/1 28/1/1
f 29/15/1 30/16/1 31/17/1 32/18/1
f 33/16/1 34/19/1 35/20/1 36/17/1
f 37/13/1 38/14/1 39/2/1 40/1/1
f 41/21/1 42/22/1 43/16/1 44/15/1
f 45/22/1 46/23/1 47/19/1 48/16/1
f 49/24/1 50/25/1 51/26/1 52/27/1
f 53/28/1 54/29/1 55/30/1 56/31/1
f 57/32/1 58/33/1 59/34/1 60/35/1
f 61/36/1 62/37/1 63/6/1 64/5/1
f 65/38/1 66/39/1 67/40/1 68/41/1
f 69/42/1 70/38/1 71/41/1 72/43/1
f 73/39/1 74/44/1 75/45/1 76/40/1
f 77/46/1 78/47/1 79/22/1 80/21/1
f 81/47/1 82/48/1 83/23/1 84/22/1
f 85/49/1 86/50/1 87/51/1 88/52/1
f 89/53/1 90/54/1 91/25/1 92/24/1
f 93/55/1 94/56/1 95/29/1 96/28/1
f 97/57/1 98/58/1 99/33/1 100/32/1
f 101/59/1 102/36/1 103/5/1 104/60/1
f 105/61/1 106/62/1 107/39/1 108/38/1
f 109/63/1 110/61/1 111/38/1 112/42/1
f 113/62/1 114/64/1 115/44/1 116/39/1
f 117/65/1 118/66/1 119/50/1 120/49/1
f 121/67/1 122/68/1 123/69/1 124/70/1
f 125/70/1 126/69/1 127/56/1 128/55/1
f 129/71/1 130/72/1 131/58/1 132/57/1
f 133/73/1 134/74/1 135/72/1 136/71/1
f 137/38/1 138/39/1 139/40/1 140/41/1
f 141/75/1 142/76/1 143/62/1 144/61/1
f 145/77/1 146/78/1 147/76/1 148/75/1
f 149/39/1 150/44/1 151/45/1 152/40/1
f 153/61/1 154/62/1 155/39/1 156/38/1
f 157/76/1 158/79/1 159/64/1 160/62/1
f 161/76/1 162/79/1 163/64/1 164/62/1
f 165/62/1 166/64/1 167/44/1 168/39/1
f 169/38/1 170/39/1 171/40/1 172/41/1
f 173/76/1 174/79/1 175/64/1 176/62/1
f 177/76/1 178/79/1 179/64/1 180/62/1
f 181/39/1 182/44/1 183/45/1 184/40/1
f 185/61/1 186/62/1 187/39/1 188/38/1
f 189/76/1 190/79/1 191/64/1 192/62/1
f 193/76/1 194/79/1 195/64/1 196/62/1
f 197/62/1 198/64/1 199/44/1 200/39/1
f 201/38/1 202/39/1 203/40/1 204/41/1
f 205/76/1 206/79/1 207/64/1 208/62/1
f 209/76/1 210/79/1 211/64/1 212/62/1
f 213/39/1 214/44/1 215/45/1 216/40/1
f 217/61/1 218/62/1 219/39/1 220/38/1
f 221/79/1 222/80/1 223/81/1 224/64/1
f 225/78/1 226/82/1 227/79/1 228/76/1
f 229/62/1 230/64/1 231/44/1 232/39/1
f 233/6/1 234/24/1 235/27/1 236/7/1
f 237/83/1 238/84/1 239/85/1 240/86/1
f 241/84/1 242/87/1 243/88/1 244/85/1
f 245/87/1 246/89/1 247/90/1 248/88/1
f 249/91/1 250/92/1 251/78/1 252/77/1
f 253/93/1 254/94/1 255/95/1 256/82/1
f 257/37/1 258/53/1 259/24/1 260/6/1
f 261/96/1 262/97/1 263/84/1 264/83/1
f 265/97/1 266/98/1 267/87/1 268/84/1
f 269/98/1 270/99/1 271/89/1 272/87/1
f 273/100/1 274/101/1 275/97/1 276/96/1
f 277/101/1 278/102/1 279/98/1 280/97/1
f 281/102/1 282/103/1 283/99/1 284/98/1

