# Tiled2Unity generated file. Do not modify by hand.
# Wavefront file for 'tesr3_mesh_0003.obj'

# Vertices (Count = 752)
v -960 -1184 0
v -992 -1184 0
v -992 -1152 0
v -960 -1152 0
v -992 -1184 0
v -1024 -1184 0
v -1024 -1152 0
v -992 -1152 0
v -1024 -1184 0
v -1056 -1184 0
v -1056 -1152 0
v -1024 -1152 0
v -1056 -1184 0
v -1088 -1184 0
v -1088 -1152 0
v -1056 -1152 0
v -1088 -1184 0
v -1120 -1184 0
v -1120 -1152 0
v -1088 -1152 0
v -1120 -1184 0
v -1152 -1184 0
v -1152 -1152 0
v -1120 -1152 0
v -1152 -1184 0
v -1184 -1184 0
v -1184 -1152 0
v -1152 -1152 0
v -1184 -1184 0
v -1216 -1184 0
v -1216 -1152 0
v -1184 -1152 0
v -1216 -1184 0
v -1248 -1184 0
v -1248 -1152 0
v -1216 -1152 0
v -1248 -1184 0
v -1280 -1184 0
v -1280 -1152 0
v -1248 -1152 0
v -1280 -1184 0
v -1312 -1184 0
v -1312 -1152 0
v -1280 -1152 0
v -1312 -1184 0
v -1344 -1184 0
v -1344 -1152 0
v -1312 -1152 0
v -1344 -1184 0
v -1376 -1184 0
v -1376 -1152 0
v -1344 -1152 0
v -1376 -1184 0
v -1408 -1184 0
v -1408 -1152 0
v -1376 -1152 0
v -1408 -1184 0
v -1440 -1184 0
v -1440 -1152 0
v -1408 -1152 0
v -1440 -1184 0
v -1472 -1184 0
v -1472 -1152 0
v -1440 -1152 0
v -1472 -1184 0
v -1504 -1184 0
v -1504 -1152 0
v -1472 -1152 0
v -1504 -1184 0
v -1536 -1184 0
v -1536 -1152 0
v -1504 -1152 0
v -1536 -1184 0
v -1568 -1184 0
v -1568 -1152 0
v -1536 -1152 0
v -1568 -1184 0
v -1600 -1184 0
v -1600 -1152 0
v -1568 -1152 0
v -1600 -1184 0
v -1632 -1184 0
v -1632 -1152 0
v -1600 -1152 0
v -1632 -1184 0
v -1664 -1184 0
v -1664 -1152 0
v -1632 -1152 0
v -1664 -1184 0
v -1696 -1184 0
v -1696 -1152 0
v -1664 -1152 0
v -1696 -1184 0
v -1728 -1184 0
v -1728 -1152 0
v -1696 -1152 0
v -1728 -1184 0
v -1760 -1184 0
v -1760 -1152 0
v -1728 -1152 0
v -1760 -1184 0
v -1792 -1184 0
v -1792 -1152 0
v -1760 -1152 0
v -1792 -1184 0
v -1824 -1184 0
v -1824 -1152 0
v -1792 -1152 0
v -1824 -1184 0
v -1856 -1184 0
v -1856 -1152 0
v -1824 -1152 0
v -1856 -1184 0
v -1888 -1184 0
v -1888 -1152 0
v -1856 -1152 0
v -1888 -1184 0
v -1920 -1184 0
v -1920 -1152 0
v -1888 -1152 0
v -960 -1216 0
v -992 -1216 0
v -992 -1184 0
v -960 -1184 0
v -992 -1216 0
v -1024 -1216 0
v -1024 -1184 0
v -992 -1184 0
v -1024 -1216 0
v -1056 -1216 0
v -1056 -1184 0
v -1024 -1184 0
v -1056 -1216 0
v -1088 -1216 0
v -1088 -1184 0
v -1056 -1184 0
v -1088 -1216 0
v -1120 -1216 0
v -1120 -1184 0
v -1088 -1184 0
v -1120 -1216 0
v -1152 -1216 0
v -1152 -1184 0
v -1120 -1184 0
v -1152 -1216 0
v -1184 -1216 0
v -1184 -1184 0
v -1152 -1184 0
v -1184 -1216 0
v -1216 -1216 0
v -1216 -1184 0
v -1184 -1184 0
v -1216 -1216 0
v -1248 -1216 0
v -1248 -1184 0
v -1216 -1184 0
v -1248 -1216 0
v -1280 -1216 0
v -1280 -1184 0
v -1248 -1184 0
v -1280 -1216 0
v -1312 -1216 0
v -1312 -1184 0
v -1280 -1184 0
v -1312 -1216 0
v -1344 -1216 0
v -1344 -1184 0
v -1312 -1184 0
v -1344 -1216 0
v -1376 -1216 0
v -1376 -1184 0
v -1344 -1184 0
v -1376 -1216 0
v -1408 -1216 0
v -1408 -1184 0
v -1376 -1184 0
v -1408 -1216 0
v -1440 -1216 0
v -1440 -1184 0
v -1408 -1184 0
v -1440 -1216 0
v -1472 -1216 0
v -1472 -1184 0
v -1440 -1184 0
v -1472 -1216 0
v -1504 -1216 0
v -1504 -1184 0
v -1472 -1184 0
v -1504 -1216 0
v -1536 -1216 0
v -1536 -1184 0
v -1504 -1184 0
v -1536 -1216 0
v -1568 -1216 0
v -1568 -1184 0
v -1536 -1184 0
v -1568 -1216 0
v -1600 -1216 0
v -1600 -1184 0
v -1568 -1184 0
v -1600 -1216 0
v -1632 -1216 0
v -1632 -1184 0
v -1600 -1184 0
v -1632 -1216 0
v -1664 -1216 0
v -1664 -1184 0
v -1632 -1184 0
v -1664 -1216 0
v -1696 -1216 0
v -1696 -1184 0
v -1664 -1184 0
v -1696 -1216 0
v -1728 -1216 0
v -1728 -1184 0
v -1696 -1184 0
v -1728 -1216 0
v -1760 -1216 0
v -1760 -1184 0
v -1728 -1184 0
v -1760 -1216 0
v -1792 -1216 0
v -1792 -1184 0
v -1760 -1184 0
v -1792 -1216 0
v -1824 -1216 0
v -1824 -1184 0
v -1792 -1184 0
v -1824 -1216 0
v -1856 -1216 0
v -1856 -1184 0
v -1824 -1184 0
v -1856 -1216 0
v -1888 -1216 0
v -1888 -1184 0
v -1856 -1184 0
v -1888 -1216 0
v -1920 -1216 0
v -1920 -1184 0
v -1888 -1184 0
v -960 -1248 0
v -992 -1248 0
v -992 -1216 0
v -960 -1216 0
v -992 -1248 0
v -1024 -1248 0
v -1024 -1216 0
v -992 -1216 0
v -1856 -1248 0
v -1888 -1248 0
v -1888 -1216 0
v -1856 -1216 0
v -1888 -1248 0
v -1920 -1248 0
v -1920 -1216 0
v -1888 -1216 0
v -960 -1280 0
v -992 -1280 0
v -992 -1248 0
v -960 -1248 0
v -992 -1280 0
v -1024 -1280 0
v -1024 -1248 0
v -992 -1248 0
v -1856 -1280 0
v -1888 -1280 0
v -1888 -1248 0
v -1856 -1248 0
v -1888 -1280 0
v -1920 -1280 0
v -1920 -1248 0
v -1888 -1248 0
v -960 -1312 0
v -992 -1312 0
v -992 -1280 0
v -960 -1280 0
v -992 -1312 0
v -1024 -1312 0
v -1024 -1280 0
v -992 -1280 0
v -1856 -1312 0
v -1888 -1312 0
v -1888 -1280 0
v -1856 -1280 0
v -1888 -1312 0
v -1920 -1312 0
v -1920 -1280 0
v -1888 -1280 0
v -960 -1344 0
v -992 -1344 0
v -992 -1312 0
v -960 -1312 0
v -992 -1344 0
v -1024 -1344 0
v -1024 -1312 0
v -992 -1312 0
v -1856 -1344 0
v -1888 -1344 0
v -1888 -1312 0
v -1856 -1312 0
v -1888 -1344 0
v -1920 -1344 0
v -1920 -1312 0
v -1888 -1312 0
v -960 -1376 0
v -992 -1376 0
v -992 -1344 0
v -960 -1344 0
v -992 -1376 0
v -1024 -1376 0
v -1024 -1344 0
v -992 -1344 0
v -1856 -1376 0
v -1888 -1376 0
v -1888 -1344 0
v -1856 -1344 0
v -1888 -1376 0
v -1920 -1376 0
v -1920 -1344 0
v -1888 -1344 0
v -960 -1408 0
v -992 -1408 0
v -992 -1376 0
v -960 -1376 0
v -992 -1408 0
v -1024 -1408 0
v -1024 -1376 0
v -992 -1376 0
v -1856 -1408 0
v -1888 -1408 0
v -1888 -1376 0
v -1856 -1376 0
v -1888 -1408 0
v -1920 -1408 0
v -1920 -1376 0
v -1888 -1376 0
v -960 -1440 0
v -992 -1440 0
v -992 -1408 0
v -960 -1408 0
v -992 -1440 0
v -1024 -1440 0
v -1024 -1408 0
v -992 -1408 0
v -1856 -1440 0
v -1888 -1440 0
v -1888 -1408 0
v -1856 -1408 0
v -1888 -1440 0
v -1920 -1440 0
v -1920 -1408 0
v -1888 -1408 0
v -960 -1472 0
v -992 -1472 0
v -992 -1440 0
v -960 -1440 0
v -992 -1472 0
v -1024 -1472 0
v -1024 -1440 0
v -992 -1440 0
v -1856 -1472 0
v -1888 -1472 0
v -1888 -1440 0
v -1856 -1440 0
v -1888 -1472 0
v -1920 -1472 0
v -1920 -1440 0
v -1888 -1440 0
v -960 -1504 0
v -992 -1504 0
v -992 -1472 0
v -960 -1472 0
v -992 -1504 0
v -1024 -1504 0
v -1024 -1472 0
v -992 -1472 0
v -1856 -1504 0
v -1888 -1504 0
v -1888 -1472 0
v -1856 -1472 0
v -1888 -1504 0
v -1920 -1504 0
v -1920 -1472 0
v -1888 -1472 0
v -960 -1536 0
v -992 -1536 0
v -992 -1504 0
v -960 -1504 0
v -992 -1536 0
v -1024 -1536 0
v -1024 -1504 0
v -992 -1504 0
v -1856 -1536 0
v -1888 -1536 0
v -1888 -1504 0
v -1856 -1504 0
v -1888 -1536 0
v -1920 -1536 0
v -1920 -1504 0
v -1888 -1504 0
v -960 -1568 0
v -992 -1568 0
v -992 -1536 0
v -960 -1536 0
v -992 -1568 0
v -1024 -1568 0
v -1024 -1536 0
v -992 -1536 0
v -1856 -1568 0
v -1888 -1568 0
v -1888 -1536 0
v -1856 -1536 0
v -1888 -1568 0
v -1920 -1568 0
v -1920 -1536 0
v -1888 -1536 0
v -960 -1600 0
v -992 -1600 0
v -992 -1568 0
v -960 -1568 0
v -992 -1600 0
v -1024 -1600 0
v -1024 -1568 0
v -992 -1568 0
v -1856 -1600 0
v -1888 -1600 0
v -1888 -1568 0
v -1856 -1568 0
v -1888 -1600 0
v -1920 -1600 0
v -1920 -1568 0
v -1888 -1568 0
v -960 -1632 0
v -992 -1632 0
v -992 -1600 0
v -960 -1600 0
v -992 -1632 0
v -1024 -1632 0
v -1024 -1600 0
v -992 -1600 0
v -1856 -1632 0
v -1888 -1632 0
v -1888 -1600 0
v -1856 -1600 0
v -1888 -1632 0
v -1920 -1632 0
v -1920 -1600 0
v -1888 -1600 0
v -960 -1664 0
v -992 -1664 0
v -992 -1632 0
v -960 -1632 0
v -992 -1664 0
v -1024 -1664 0
v -1024 -1632 0
v -992 -1632 0
v -1856 -1664 0
v -1888 -1664 0
v -1888 -1632 0
v -1856 -1632 0
v -1888 -1664 0
v -1920 -1664 0
v -1920 -1632 0
v -1888 -1632 0
v -960 -1696 0
v -992 -1696 0
v -992 -1664 0
v -960 -1664 0
v -992 -1696 0
v -1024 -1696 0
v -1024 -1664 0
v -992 -1664 0
v -1856 -1696 0
v -1888 -1696 0
v -1888 -1664 0
v -1856 -1664 0
v -1888 -1696 0
v -1920 -1696 0
v -1920 -1664 0
v -1888 -1664 0
v -960 -1728 0
v -992 -1728 0
v -992 -1696 0
v -960 -1696 0
v -992 -1728 0
v -1024 -1728 0
v -1024 -1696 0
v -992 -1696 0
v -1856 -1728 0
v -1888 -1728 0
v -1888 -1696 0
v -1856 -1696 0
v -1888 -1728 0
v -1920 -1728 0
v -1920 -1696 0
v -1888 -1696 0
v -960 -1760 0
v -992 -1760 0
v -992 -1728 0
v -960 -1728 0
v -992 -1760 0
v -1024 -1760 0
v -1024 -1728 0
v -992 -1728 0
v -1856 -1760 0
v -1888 -1760 0
v -1888 -1728 0
v -1856 -1728 0
v -1888 -1760 0
v -1920 -1760 0
v -1920 -1728 0
v -1888 -1728 0
v -960 -1792 0
v -992 -1792 0
v -992 -1760 0
v -960 -1760 0
v -992 -1792 0
v -1024 -1792 0
v -1024 -1760 0
v -992 -1760 0
v -1024 -1792 0
v -1056 -1792 0
v -1056 -1760 0
v -1024 -1760 0
v -1056 -1792 0
v -1088 -1792 0
v -1088 -1760 0
v -1056 -1760 0
v -1088 -1792 0
v -1120 -1792 0
v -1120 -1760 0
v -1088 -1760 0
v -1120 -1792 0
v -1152 -1792 0
v -1152 -1760 0
v -1120 -1760 0
v -1152 -1792 0
v -1184 -1792 0
v -1184 -1760 0
v -1152 -1760 0
v -1184 -1792 0
v -1216 -1792 0
v -1216 -1760 0
v -1184 -1760 0
v -1216 -1792 0
v -1248 -1792 0
v -1248 -1760 0
v -1216 -1760 0
v -1248 -1792 0
v -1280 -1792 0
v -1280 -1760 0
v -1248 -1760 0
v -1280 -1792 0
v -1312 -1792 0
v -1312 -1760 0
v -1280 -1760 0
v -1312 -1792 0
v -1344 -1792 0
v -1344 -1760 0
v -1312 -1760 0
v -1344 -1792 0
v -1376 -1792 0
v -1376 -1760 0
v -1344 -1760 0
v -1376 -1792 0
v -1408 -1792 0
v -1408 -1760 0
v -1376 -1760 0
v -1408 -1792 0
v -1440 -1792 0
v -1440 -1760 0
v -1408 -1760 0
v -1440 -1792 0
v -1472 -1792 0
v -1472 -1760 0
v -1440 -1760 0
v -1472 -1792 0
v -1504 -1792 0
v -1504 -1760 0
v -1472 -1760 0
v -1504 -1792 0
v -1536 -1792 0
v -1536 -1760 0
v -1504 -1760 0
v -1536 -1792 0
v -1568 -1792 0
v -1568 -1760 0
v -1536 -1760 0
v -1568 -1792 0
v -1600 -1792 0
v -1600 -1760 0
v -1568 -1760 0
v -1600 -1792 0
v -1632 -1792 0
v -1632 -1760 0
v -1600 -1760 0
v -1632 -1792 0
v -1664 -1792 0
v -1664 -1760 0
v -1632 -1760 0
v -1664 -1792 0
v -1696 -1792 0
v -1696 -1760 0
v -1664 -1760 0
v -1696 -1792 0
v -1728 -1792 0
v -1728 -1760 0
v -1696 -1760 0
v -1728 -1792 0
v -1760 -1792 0
v -1760 -1760 0
v -1728 -1760 0
v -1760 -1792 0
v -1792 -1792 0
v -1792 -1760 0
v -1760 -1760 0
v -1792 -1792 0
v -1824 -1792 0
v -1824 -1760 0
v -1792 -1760 0
v -1824 -1792 0
v -1856 -1792 0
v -1856 -1760 0
v -1824 -1760 0
v -1856 -1792 0
v -1888 -1792 0
v -1888 -1760 0
v -1856 -1760 0
v -1888 -1792 0
v -1920 -1792 0
v -1920 -1760 0
v -1888 -1760 0
v -960 -1824 0
v -992 -1824 0
v -992 -1792 0
v -960 -1792 0
v -992 -1824 0
v -1024 -1824 0
v -1024 -1792 0
v -992 -1792 0
v -1024 -1824 0
v -1056 -1824 0
v -1056 -1792 0
v -1024 -1792 0
v -1056 -1824 0
v -1088 -1824 0
v -1088 -1792 0
v -1056 -1792 0
v -1088 -1824 0
v -1120 -1824 0
v -1120 -1792 0
v -1088 -1792 0
v -1120 -1824 0
v -1152 -1824 0
v -1152 -1792 0
v -1120 -1792 0
v -1152 -1824 0
v -1184 -1824 0
v -1184 -1792 0
v -1152 -1792 0
v -1184 -1824 0
v -1216 -1824 0
v -1216 -1792 0
v -1184 -1792 0
v -1216 -1824 0
v -1248 -1824 0
v -1248 -1792 0
v -1216 -1792 0
v -1248 -1824 0
v -1280 -1824 0
v -1280 -1792 0
v -1248 -1792 0
v -1280 -1824 0
v -1312 -1824 0
v -1312 -1792 0
v -1280 -1792 0
v -1312 -1824 0
v -1344 -1824 0
v -1344 -1792 0
v -1312 -1792 0
v -1344 -1824 0
v -1376 -1824 0
v -1376 -1792 0
v -1344 -1792 0
v -1376 -1824 0
v -1408 -1824 0
v -1408 -1792 0
v -1376 -1792 0
v -1408 -1824 0
v -1440 -1824 0
v -1440 -1792 0
v -1408 -1792 0
v -1440 -1824 0
v -1472 -1824 0
v -1472 -1792 0
v -1440 -1792 0
v -1472 -1824 0
v -1504 -1824 0
v -1504 -1792 0
v -1472 -1792 0
v -1504 -1824 0
v -1536 -1824 0
v -1536 -1792 0
v -1504 -1792 0
v -1536 -1824 0
v -1568 -1824 0
v -1568 -1792 0
v -1536 -1792 0
v -1568 -1824 0
v -1600 -1824 0
v -1600 -1792 0
v -1568 -1792 0
v -1600 -1824 0
v -1632 -1824 0
v -1632 -1792 0
v -1600 -1792 0
v -1632 -1824 0
v -1664 -1824 0
v -1664 -1792 0
v -1632 -1792 0
v -1664 -1824 0
v -1696 -1824 0
v -1696 -1792 0
v -1664 -1792 0
v -1696 -1824 0
v -1728 -1824 0
v -1728 -1792 0
v -1696 -1792 0
v -1728 -1824 0
v -1760 -1824 0
v -1760 -1792 0
v -1728 -1792 0
v -1760 -1824 0
v -1792 -1824 0
v -1792 -1792 0
v -1760 -1792 0
v -1792 -1824 0
v -1824 -1824 0
v -1824 -1792 0
v -1792 -1792 0
v -1824 -1824 0
v -1856 -1824 0
v -1856 -1792 0
v -1824 -1792 0
v -1856 -1824 0
v -1888 -1824 0
v -1888 -1792 0
v -1856 -1792 0
v -1888 -1824 0
v -1920 -1824 0
v -1920 -1792 0
v -1888 -1792 0

# Texture cooridinates (Count = 9)
vt 0 0.6666666
vt 0.5 0.6666666
vt 0.5 1
vt 0 1
vt 1 0.6666666
vt 1 1
vt 0 0.3333333
vt 0.5 0.3333333
vt 1 0.3333333

# Normal
vn 0 0 -1

# Mesh description
g tesr3_mesh_0003

# Faces
f 1/1/1 2/2/1 3/3/1 4/4/1
f 5/2/1 6/5/1 7/6/1 8/3/1
f 9/1/1 10/2/1 11/3/1 12/4/1
f 13/1/1 14/2/1 15/3/1 16/4/1
f 17/1/1 18/2/1 19/3/1 20/4/1
f 21/1/1 22/2/1 23/3/1 24/4/1
f 25/1/1 26/2/1 27/3/1 28/4/1
f 29/1/1 30/2/1 31/3/1 32/4/1
f 33/1/1 34/2/1 35/3/1 36/4/1
f 37/1/1 38/2/1 39/3/1 40/4/1
f 41/1/1 42/2/1 43/3/1 44/4/1
f 45/1/1 46/2/1 47/3/1 48/4/1
f 49/1/1 50/2/1 51/3/1 52/4/1
f 53/1/1 54/2/1 55/3/1 56/4/1
f 57/1/1 58/2/1 59/3/1 60/4/1
f 61/1/1 62/2/1 63/3/1 64/4/1
f 65/1/1 66/2/1 67/3/1 68/4/1
f 69/1/1 70/2/1 71/3/1 72/4/1
f 73/1/1 74/2/1 75/3/1 76/4/1
f 77/1/1 78/2/1 79/3/1 80/4/1
f 81/1/1 82/2/1 83/3/1 84/4/1
f 85/1/1 86/2/1 87/3/1 88/4/1
f 89/1/1 90/2/1 91/3/1 92/4/1
f 93/1/1 94/2/1 95/3/1 96/4/1
f 97/1/1 98/2/1 99/3/1 100/4/1
f 101/1/1 102/2/1 103/3/1 104/4/1
f 105/1/1 106/2/1 107/3/1 108/4/1
f 109/1/1 110/2/1 111/3/1 112/4/1
f 113/1/1 114/2/1 115/3/1 116/4/1
f 117/2/1 118/5/1 119/6/1 120/3/1
f 121/1/1 122/2/1 123/3/1 124/4/1
f 125/2/1 126/5/1 127/6/1 128/3/1
f 129/7/1 130/8/1 131/2/1 132/1/1
f 133/7/1 134/8/1 135/2/1 136/1/1
f 137/7/1 138/8/1 139/2/1 140/1/1
f 141/7/1 142/8/1 143/2/1 144/1/1
f 145/7/1 146/8/1 147/2/1 148/1/1
f 149/7/1 150/8/1 151/2/1 152/1/1
f 153/7/1 154/8/1 155/2/1 156/1/1
f 157/7/1 158/8/1 159/2/1 160/1/1
f 161/7/1 162/8/1 163/2/1 164/1/1
f 165/7/1 166/8/1 167/2/1 168/1/1
f 169/7/1 170/8/1 171/2/1 172/1/1
f 173/7/1 174/8/1 175/2/1 176/1/1
f 177/7/1 178/8/1 179/2/1 180/1/1
f 181/7/1 182/8/1 183/2/1 184/1/1
f 185/7/1 186/8/1 187/2/1 188/1/1
f 189/7/1 190/8/1 191/2/1 192/1/1
f 193/7/1 194/8/1 195/2/1 196/1/1
f 197/7/1 198/8/1 199/2/1 200/1/1
f 201/7/1 202/8/1 203/2/1 204/1/1
f 205/7/1 206/8/1 207/2/1 208/1/1
f 209/7/1 210/8/1 211/2/1 212/1/1
f 213/7/1 214/8/1 215/2/1 216/1/1
f 217/7/1 218/8/1 219/2/1 220/1/1
f 221/7/1 222/8/1 223/2/1 224/1/1
f 225/7/1 226/8/1 227/2/1 228/1/1
f 229/7/1 230/8/1 231/2/1 232/1/1
f 233/1/1 234/2/1 235/3/1 236/4/1
f 237/2/1 238/5/1 239/6/1 240/3/1
f 241/1/1 242/2/1 243/3/1 244/4/1
f 245/2/1 246/5/1 247/6/1 248/3/1
f 249/1/1 250/2/1 251/3/1 252/4/1
f 253/2/1 254/5/1 255/6/1 256/3/1
f 257/1/1 258/2/1 259/3/1 260/4/1
f 261/2/1 262/5/1 263/6/1 264/3/1
f 265/1/1 266/2/1 267/3/1 268/4/1
f 269/2/1 270/5/1 271/6/1 272/3/1
f 273/1/1 274/2/1 275/3/1 276/4/1
f 277/2/1 278/5/1 279/6/1 280/3/1
f 281/1/1 282/2/1 283/3/1 284/4/1
f 285/2/1 286/5/1 287/6/1 288/3/1
f 289/1/1 290/2/1 291/3/1 292/4/1
f 293/2/1 294/5/1 295/6/1 296/3/1
f 297/1/1 298/2/1 299/3/1 300/4/1
f 301/2/1 302/5/1 303/6/1 304/3/1
f 305/1/1 306/2/1 307/3/1 308/4/1
f 309/2/1 310/5/1 311/6/1 312/3/1
f 313/1/1 314/2/1 315/3/1 316/4/1
f 317/2/1 318/5/1 319/6/1 320/3/1
f 321/1/1 322/2/1 323/3/1 324/4/1
f 325/2/1 326/5/1 327/6/1 328/3/1
f 329/1/1 330/2/1 331/3/1 332/4/1
f 333/2/1 334/5/1 335/6/1 336/3/1
f 337/1/1 338/2/1 339/3/1 340/4/1
f 341/2/1 342/5/1 343/6/1 344/3/1
f 345/1/1 346/2/1 347/3/1 348/4/1
f 349/2/1 350/5/1 351/6/1 352/3/1
f 353/1/1 354/2/1 355/3/1 356/4/1
f 357/2/1 358/5/1 359/6/1 360/3/1
f 361/1/1 362/2/1 363/3/1 364/4/1
f 365/2/1 366/5/1 367/6/1 368/3/1
f 369/1/1 370/2/1 371/3/1 372/4/1
f 373/2/1 374/5/1 375/6/1 376/3/1
f 377/1/1 378/2/1 379/3/1 380/4/1
f 381/2/1 382/5/1 383/6/1 384/3/1
f 385/2/1 386/5/1 387/6/1 388/3/1
f 389/2/1 390/5/1 391/6/1 392/3/1
f 393/1/1 394/2/1 395/3/1 396/4/1
f 397/2/1 398/5/1 399/6/1 400/3/1
f 401/1/1 402/2/1 403/3/1 404/4/1
f 405/2/1 406/5/1 407/6/1 408/3/1
f 409/1/1 410/2/1 411/3/1 412/4/1
f 413/2/1 414/5/1 415/6/1 416/3/1
f 417/1/1 418/2/1 419/3/1 420/4/1
f 421/2/1 422/5/1 423/6/1 424/3/1
f 425/1/1 426/2/1 427/3/1 428/4/1
f 429/2/1 430/5/1 431/6/1 432/3/1
f 433/1/1 434/2/1 435/3/1 436/4/1
f 437/2/1 438/5/1 439/6/1 440/3/1
f 441/1/1 442/2/1 443/3/1 444/4/1
f 445/2/1 446/5/1 447/6/1 448/3/1
f 449/1/1 450/2/1 451/3/1 452/4/1
f 453/2/1 454/5/1 455/6/1 456/3/1
f 457/1/1 458/2/1 459/3/1 460/4/1
f 461/2/1 462/5/1 463/6/1 464/3/1
f 465/1/1 466/2/1 467/3/1 468/4/1
f 469/2/1 470/5/1 471/6/1 472/3/1
f 473/1/1 474/2/1 475/3/1 476/4/1
f 477/2/1 478/5/1 479/6/1 480/3/1
f 481/1/1 482/2/1 483/3/1 484/4/1
f 485/2/1 486/5/1 487/6/1 488/3/1
f 489/1/1 490/2/1 491/3/1 492/4/1
f 493/2/1 494/5/1 495/6/1 496/3/1
f 497/1/1 498/2/1 499/3/1 500/4/1
f 501/2/1 502/5/1 503/6/1 504/3/1
f 505/1/1 506/2/1 507/3/1 508/4/1
f 509/2/1 510/5/1 511/6/1 512/3/1
f 513/1/1 514/2/1 515/3/1 516/4/1
f 517/1/1 518/2/1 519/3/1 520/4/1
f 521/1/1 522/2/1 523/3/1 524/4/1
f 525/1/1 526/2/1 527/3/1 528/4/1
f 529/1/1 530/2/1 531/3/1 532/4/1
f 533/1/1 534/2/1 535/3/1 536/4/1
f 537/1/1 538/2/1 539/3/1 540/4/1
f 541/1/1 542/2/1 543/3/1 544/4/1
f 545/1/1 546/2/1 547/3/1 548/4/1
f 549/1/1 550/2/1 551/3/1 552/4/1
f 553/1/1 554/2/1 555/3/1 556/4/1
f 557/1/1 558/2/1 559/3/1 560/4/1
f 561/1/1 562/2/1 563/3/1 564/4/1
f 565/1/1 566/2/1 567/3/1 568/4/1
f 569/1/1 570/2/1 571/3/1 572/4/1
f 573/1/1 574/2/1 575/3/1 576/4/1
f 577/1/1 578/2/1 579/3/1 580/4/1
f 581/1/1 582/2/1 583/3/1 584/4/1
f 585/1/1 586/2/1 587/3/1 588/4/1
f 589/1/1 590/2/1 591/3/1 592/4/1
f 593/1/1 594/2/1 595/3/1 596/4/1
f 597/1/1 598/2/1 599/3/1 600/4/1
f 601/1/1 602/2/1 603/3/1 604/4/1
f 605/1/1 606/2/1 607/3/1 608/4/1
f 609/2/1 610/5/1 611/6/1 612/3/1
f 613/1/1 614/2/1 615/3/1 616/4/1
f 617/2/1 618/5/1 619/6/1 620/3/1
f 621/2/1 622/5/1 623/6/1 624/3/1
f 625/2/1 626/5/1 627/6/1 628/3/1
f 629/2/1 630/5/1 631/6/1 632/3/1
f 633/1/1 634/2/1 635/3/1 636/4/1
f 637/7/1 638/8/1 639/2/1 640/1/1
f 641/7/1 642/8/1 643/2/1 644/1/1
f 645/7/1 646/8/1 647/2/1 648/1/1
f 649/7/1 650/8/1 651/2/1 652/1/1
f 653/7/1 654/8/1 655/2/1 656/1/1
f 657/7/1 658/8/1 659/2/1 660/1/1
f 661/7/1 662/8/1 663/2/1 664/1/1
f 665/7/1 666/8/1 667/2/1 668/1/1
f 669/7/1 670/8/1 671/2/1 672/1/1
f 673/7/1 674/8/1 675/2/1 676/1/1
f 677/7/1 678/8/1 679/2/1 680/1/1
f 681/7/1 682/8/1 683/2/1 684/1/1
f 685/7/1 686/8/1 687/2/1 688/1/1
f 689/7/1 690/8/1 691/2/1 692/1/1
f 693/7/1 694/8/1 695/2/1 696/1/1
f 697/7/1 698/8/1 699/2/1 700/1/1
f 701/7/1 702/8/1 703/2/1 704/1/1
f 705/7/1 706/8/1 707/2/1 708/1/1
f 709/7/1 710/8/1 711/2/1 712/1/1
f 713/7/1 714/8/1 715/2/1 716/1/1
f 717/7/1 718/8/1 719/2/1 720/1/1
f 721/1/1 722/2/1 723/3/1 724/4/1
f 725/7/1 726/8/1 727/2/1 728/1/1
f 729/8/1 730/9/1 731/5/1 732/2/1
f 733/2/1 734/5/1 735/6/1 736/3/1
f 737/2/1 738/5/1 739/6/1 740/3/1
f 741/8/1 742/9/1 743/5/1 744/2/1
f 745/8/1 746/9/1 747/5/1 748/2/1
f 749/2/1 750/5/1 751/6/1 752/3/1

