# Tiled2Unity generated file. Do not modify by hand.
# Wavefront file for 'test2_mesh_0002.obj'

# Vertices (Count = 584)
v -1344 -1504 0
v -1376 -1504 0
v -1376 -1472 0
v -1344 -1472 0
v -1376 -1504 0
v -1408 -1504 0
v -1408 -1472 0
v -1376 -1472 0
v -1408 -1504 0
v -1440 -1504 0
v -1440 -1472 0
v -1408 -1472 0
v -1440 -1504 0
v -1472 -1504 0
v -1472 -1472 0
v -1440 -1472 0
v -1472 -1504 0
v -1504 -1504 0
v -1504 -1472 0
v -1472 -1472 0
v -1504 -1504 0
v -1536 -1504 0
v -1536 -1472 0
v -1504 -1472 0
v -1536 -1504 0
v -1568 -1504 0
v -1568 -1472 0
v -1536 -1472 0
v -1568 -1504 0
v -1600 -1504 0
v -1600 -1472 0
v -1568 -1472 0
v -1600 -1504 0
v -1632 -1504 0
v -1632 -1472 0
v -1600 -1472 0
v -1632 -1504 0
v -1664 -1504 0
v -1664 -1472 0
v -1632 -1472 0
v -1664 -1504 0
v -1696 -1504 0
v -1696 -1472 0
v -1664 -1472 0
v -1696 -1504 0
v -1728 -1504 0
v -1728 -1472 0
v -1696 -1472 0
v -1728 -1504 0
v -1760 -1504 0
v -1760 -1472 0
v -1728 -1472 0
v -1760 -1504 0
v -1792 -1504 0
v -1792 -1472 0
v -1760 -1472 0
v -1792 -1504 0
v -1824 -1504 0
v -1824 -1472 0
v -1792 -1472 0
v -1824 -1504 0
v -1856 -1504 0
v -1856 -1472 0
v -1824 -1472 0
v -1344 -1536 0
v -1376 -1536 0
v -1376 -1504 0
v -1344 -1504 0
v -1376 -1536 0
v -1408 -1536 0
v -1408 -1504 0
v -1376 -1504 0
v -1408 -1536 0
v -1440 -1536 0
v -1440 -1504 0
v -1408 -1504 0
v -1440 -1536 0
v -1472 -1536 0
v -1472 -1504 0
v -1440 -1504 0
v -1472 -1536 0
v -1504 -1536 0
v -1504 -1504 0
v -1472 -1504 0
v -1504 -1536 0
v -1536 -1536 0
v -1536 -1504 0
v -1504 -1504 0
v -1536 -1536 0
v -1568 -1536 0
v -1568 -1504 0
v -1536 -1504 0
v -1568 -1536 0
v -1600 -1536 0
v -1600 -1504 0
v -1568 -1504 0
v -1600 -1536 0
v -1632 -1536 0
v -1632 -1504 0
v -1600 -1504 0
v -1632 -1536 0
v -1664 -1536 0
v -1664 -1504 0
v -1632 -1504 0
v -1664 -1536 0
v -1696 -1536 0
v -1696 -1504 0
v -1664 -1504 0
v -1696 -1536 0
v -1728 -1536 0
v -1728 -1504 0
v -1696 -1504 0
v -1728 -1536 0
v -1760 -1536 0
v -1760 -1504 0
v -1728 -1504 0
v -1760 -1536 0
v -1792 -1536 0
v -1792 -1504 0
v -1760 -1504 0
v -1792 -1536 0
v -1824 -1536 0
v -1824 -1504 0
v -1792 -1504 0
v -1824 -1536 0
v -1856 -1536 0
v -1856 -1504 0
v -1824 -1504 0
v -1344 -1568 0
v -1376 -1568 0
v -1376 -1536 0
v -1344 -1536 0
v -1376 -1568 0
v -1408 -1568 0
v -1408 -1536 0
v -1376 -1536 0
v -1408 -1568 0
v -1440 -1568 0
v -1440 -1536 0
v -1408 -1536 0
v -1440 -1568 0
v -1472 -1568 0
v -1472 -1536 0
v -1440 -1536 0
v -1472 -1568 0
v -1504 -1568 0
v -1504 -1536 0
v -1472 -1536 0
v -1504 -1568 0
v -1536 -1568 0
v -1536 -1536 0
v -1504 -1536 0
v -1536 -1568 0
v -1568 -1568 0
v -1568 -1536 0
v -1536 -1536 0
v -1568 -1568 0
v -1600 -1568 0
v -1600 -1536 0
v -1568 -1536 0
v -1600 -1568 0
v -1632 -1568 0
v -1632 -1536 0
v -1600 -1536 0
v -1632 -1568 0
v -1664 -1568 0
v -1664 -1536 0
v -1632 -1536 0
v -1664 -1568 0
v -1696 -1568 0
v -1696 -1536 0
v -1664 -1536 0
v -1696 -1568 0
v -1728 -1568 0
v -1728 -1536 0
v -1696 -1536 0
v -1728 -1568 0
v -1760 -1568 0
v -1760 -1536 0
v -1728 -1536 0
v -1760 -1568 0
v -1792 -1568 0
v -1792 -1536 0
v -1760 -1536 0
v -1792 -1568 0
v -1824 -1568 0
v -1824 -1536 0
v -1792 -1536 0
v -1824 -1568 0
v -1856 -1568 0
v -1856 -1536 0
v -1824 -1536 0
v -1344 -1600 0
v -1376 -1600 0
v -1376 -1568 0
v -1344 -1568 0
v -1376 -1600 0
v -1408 -1600 0
v -1408 -1568 0
v -1376 -1568 0
v -1408 -1600 0
v -1440 -1600 0
v -1440 -1568 0
v -1408 -1568 0
v -1440 -1600 0
v -1472 -1600 0
v -1472 -1568 0
v -1440 -1568 0
v -1472 -1600 0
v -1504 -1600 0
v -1504 -1568 0
v -1472 -1568 0
v -1504 -1600 0
v -1536 -1600 0
v -1536 -1568 0
v -1504 -1568 0
v -1536 -1600 0
v -1568 -1600 0
v -1568 -1568 0
v -1536 -1568 0
v -1568 -1600 0
v -1600 -1600 0
v -1600 -1568 0
v -1568 -1568 0
v -1600 -1600 0
v -1632 -1600 0
v -1632 -1568 0
v -1600 -1568 0
v -1632 -1600 0
v -1664 -1600 0
v -1664 -1568 0
v -1632 -1568 0
v -1664 -1600 0
v -1696 -1600 0
v -1696 -1568 0
v -1664 -1568 0
v -1696 -1600 0
v -1728 -1600 0
v -1728 -1568 0
v -1696 -1568 0
v -1728 -1600 0
v -1760 -1600 0
v -1760 -1568 0
v -1728 -1568 0
v -1760 -1600 0
v -1792 -1600 0
v -1792 -1568 0
v -1760 -1568 0
v -1792 -1600 0
v -1824 -1600 0
v -1824 -1568 0
v -1792 -1568 0
v -1824 -1600 0
v -1856 -1600 0
v -1856 -1568 0
v -1824 -1568 0
v -1344 -1632 0
v -1376 -1632 0
v -1376 -1600 0
v -1344 -1600 0
v -1376 -1632 0
v -1408 -1632 0
v -1408 -1600 0
v -1376 -1600 0
v -1408 -1632 0
v -1440 -1632 0
v -1440 -1600 0
v -1408 -1600 0
v -1440 -1632 0
v -1472 -1632 0
v -1472 -1600 0
v -1440 -1600 0
v -1472 -1632 0
v -1504 -1632 0
v -1504 -1600 0
v -1472 -1600 0
v -1504 -1632 0
v -1536 -1632 0
v -1536 -1600 0
v -1504 -1600 0
v -1536 -1632 0
v -1568 -1632 0
v -1568 -1600 0
v -1536 -1600 0
v -1568 -1632 0
v -1600 -1632 0
v -1600 -1600 0
v -1568 -1600 0
v -1600 -1632 0
v -1632 -1632 0
v -1632 -1600 0
v -1600 -1600 0
v -1632 -1632 0
v -1664 -1632 0
v -1664 -1600 0
v -1632 -1600 0
v -1664 -1632 0
v -1696 -1632 0
v -1696 -1600 0
v -1664 -1600 0
v -1696 -1632 0
v -1728 -1632 0
v -1728 -1600 0
v -1696 -1600 0
v -1728 -1632 0
v -1760 -1632 0
v -1760 -1600 0
v -1728 -1600 0
v -1760 -1632 0
v -1792 -1632 0
v -1792 -1600 0
v -1760 -1600 0
v -1792 -1632 0
v -1824 -1632 0
v -1824 -1600 0
v -1792 -1600 0
v -1824 -1632 0
v -1856 -1632 0
v -1856 -1600 0
v -1824 -1600 0
v -1344 -1664 0
v -1376 -1664 0
v -1376 -1632 0
v -1344 -1632 0
v -1376 -1664 0
v -1408 -1664 0
v -1408 -1632 0
v -1376 -1632 0
v -1408 -1664 0
v -1440 -1664 0
v -1440 -1632 0
v -1408 -1632 0
v -1440 -1664 0
v -1472 -1664 0
v -1472 -1632 0
v -1440 -1632 0
v -1472 -1664 0
v -1504 -1664 0
v -1504 -1632 0
v -1472 -1632 0
v -1504 -1664 0
v -1536 -1664 0
v -1536 -1632 0
v -1504 -1632 0
v -1536 -1664 0
v -1568 -1664 0
v -1568 -1632 0
v -1536 -1632 0
v -1568 -1664 0
v -1600 -1664 0
v -1600 -1632 0
v -1568 -1632 0
v -1600 -1664 0
v -1632 -1664 0
v -1632 -1632 0
v -1600 -1632 0
v -1632 -1664 0
v -1664 -1664 0
v -1664 -1632 0
v -1632 -1632 0
v -1664 -1664 0
v -1696 -1664 0
v -1696 -1632 0
v -1664 -1632 0
v -1696 -1664 0
v -1728 -1664 0
v -1728 -1632 0
v -1696 -1632 0
v -1728 -1664 0
v -1760 -1664 0
v -1760 -1632 0
v -1728 -1632 0
v -1760 -1664 0
v -1792 -1664 0
v -1792 -1632 0
v -1760 -1632 0
v -1792 -1664 0
v -1824 -1664 0
v -1824 -1632 0
v -1792 -1632 0
v -1824 -1664 0
v -1856 -1664 0
v -1856 -1632 0
v -1824 -1632 0
v -1344 -1696 0
v -1376 -1696 0
v -1376 -1664 0
v -1344 -1664 0
v -1376 -1696 0
v -1408 -1696 0
v -1408 -1664 0
v -1376 -1664 0
v -1408 -1696 0
v -1440 -1696 0
v -1440 -1664 0
v -1408 -1664 0
v -1440 -1696 0
v -1472 -1696 0
v -1472 -1664 0
v -1440 -1664 0
v -1472 -1696 0
v -1504 -1696 0
v -1504 -1664 0
v -1472 -1664 0
v -1504 -1696 0
v -1536 -1696 0
v -1536 -1664 0
v -1504 -1664 0
v -1536 -1696 0
v -1568 -1696 0
v -1568 -1664 0
v -1536 -1664 0
v -1568 -1696 0
v -1600 -1696 0
v -1600 -1664 0
v -1568 -1664 0
v -1600 -1696 0
v -1632 -1696 0
v -1632 -1664 0
v -1600 -1664 0
v -1632 -1696 0
v -1664 -1696 0
v -1664 -1664 0
v -1632 -1664 0
v -1664 -1696 0
v -1696 -1696 0
v -1696 -1664 0
v -1664 -1664 0
v -1696 -1696 0
v -1728 -1696 0
v -1728 -1664 0
v -1696 -1664 0
v -1728 -1696 0
v -1760 -1696 0
v -1760 -1664 0
v -1728 -1664 0
v -1760 -1696 0
v -1792 -1696 0
v -1792 -1664 0
v -1760 -1664 0
v -1792 -1696 0
v -1824 -1696 0
v -1824 -1664 0
v -1792 -1664 0
v -1824 -1696 0
v -1856 -1696 0
v -1856 -1664 0
v -1824 -1664 0
v -1344 -1728 0
v -1376 -1728 0
v -1376 -1696 0
v -1344 -1696 0
v -1376 -1728 0
v -1408 -1728 0
v -1408 -1696 0
v -1376 -1696 0
v -1408 -1728 0
v -1440 -1728 0
v -1440 -1696 0
v -1408 -1696 0
v -1440 -1728 0
v -1472 -1728 0
v -1472 -1696 0
v -1440 -1696 0
v -1472 -1728 0
v -1504 -1728 0
v -1504 -1696 0
v -1472 -1696 0
v -1504 -1728 0
v -1536 -1728 0
v -1536 -1696 0
v -1504 -1696 0
v -1536 -1728 0
v -1568 -1728 0
v -1568 -1696 0
v -1536 -1696 0
v -1568 -1728 0
v -1600 -1728 0
v -1600 -1696 0
v -1568 -1696 0
v -1600 -1728 0
v -1632 -1728 0
v -1632 -1696 0
v -1600 -1696 0
v -1632 -1728 0
v -1664 -1728 0
v -1664 -1696 0
v -1632 -1696 0
v -1664 -1728 0
v -1696 -1728 0
v -1696 -1696 0
v -1664 -1696 0
v -1696 -1728 0
v -1728 -1728 0
v -1728 -1696 0
v -1696 -1696 0
v -1728 -1728 0
v -1760 -1728 0
v -1760 -1696 0
v -1728 -1696 0
v -1760 -1728 0
v -1792 -1728 0
v -1792 -1696 0
v -1760 -1696 0
v -1792 -1728 0
v -1824 -1728 0
v -1824 -1696 0
v -1792 -1696 0
v -1824 -1728 0
v -1856 -1728 0
v -1856 -1696 0
v -1824 -1696 0
v -1344 -1760 0
v -1376 -1760 0
v -1376 -1728 0
v -1344 -1728 0
v -1376 -1760 0
v -1408 -1760 0
v -1408 -1728 0
v -1376 -1728 0
v -1408 -1760 0
v -1440 -1760 0
v -1440 -1728 0
v -1408 -1728 0
v -1440 -1760 0
v -1472 -1760 0
v -1472 -1728 0
v -1440 -1728 0
v -1472 -1760 0
v -1504 -1760 0
v -1504 -1728 0
v -1472 -1728 0
v -1504 -1760 0
v -1536 -1760 0
v -1536 -1728 0
v -1504 -1728 0
v -1536 -1760 0
v -1568 -1760 0
v -1568 -1728 0
v -1536 -1728 0
v -1568 -1760 0
v -1600 -1760 0
v -1600 -1728 0
v -1568 -1728 0
v -1600 -1760 0
v -1632 -1760 0
v -1632 -1728 0
v -1600 -1728 0
v -1632 -1760 0
v -1664 -1760 0
v -1664 -1728 0
v -1632 -1728 0
v -1664 -1760 0
v -1696 -1760 0
v -1696 -1728 0
v -1664 -1728 0
v -1696 -1760 0
v -1728 -1760 0
v -1728 -1728 0
v -1696 -1728 0
v -1728 -1760 0
v -1760 -1760 0
v -1760 -1728 0
v -1728 -1728 0
v -1760 -1760 0
v -1792 -1760 0
v -1792 -1728 0
v -1760 -1728 0
v -1792 -1760 0
v -1824 -1760 0
v -1824 -1728 0
v -1792 -1728 0
v -1824 -1760 0
v -1856 -1760 0
v -1856 -1728 0
v -1824 -1728 0
v -1696 -1792 0
v -1728 -1792 0
v -1728 -1760 0
v -1696 -1760 0
v -1728 -1792 0
v -1760 -1792 0
v -1760 -1760 0
v -1728 -1760 0

# Texture cooridinates (Count = 12)
vt 0 0.6666666
vt 0.5 0.6666666
vt 0.5 1
vt 0 1
vt 1 0.6666666
vt 1 1
vt 0 0.3333333
vt 0.5 0.3333333
vt 1 0.3333333
vt 0 0
vt 0.5 0
vt 1 0

# Normal
vn 0 0 -1

# Mesh description
g test2_mesh_0002

# Faces
f 1/1/1 2/2/1 3/3/1 4/4/1
f 5/2/1 6/5/1 7/6/1 8/3/1
f 9/1/1 10/2/1 11/3/1 12/4/1
f 13/1/1 14/2/1 15/3/1 16/4/1
f 17/1/1 18/2/1 19/3/1 20/4/1
f 21/1/1 22/2/1 23/3/1 24/4/1
f 25/1/1 26/2/1 27/3/1 28/4/1
f 29/1/1 30/2/1 31/3/1 32/4/1
f 33/1/1 34/2/1 35/3/1 36/4/1
f 37/1/1 38/2/1 39/3/1 40/4/1
f 41/1/1 42/2/1 43/3/1 44/4/1
f 45/1/1 46/2/1 47/3/1 48/4/1
f 49/1/1 50/2/1 51/3/1 52/4/1
f 53/1/1 54/2/1 55/3/1 56/4/1
f 57/1/1 58/2/1 59/3/1 60/4/1
f 61/2/1 62/5/1 63/6/1 64/3/1
f 65/7/1 66/8/1 67/2/1 68/1/1
f 69/8/1 70/9/1 71/5/1 72/2/1
f 73/7/1 74/8/1 75/2/1 76/1/1
f 77/7/1 78/8/1 79/2/1 80/1/1
f 81/7/1 82/8/1 83/2/1 84/1/1
f 85/7/1 86/8/1 87/2/1 88/1/1
f 89/7/1 90/8/1 91/2/1 92/1/1
f 93/7/1 94/8/1 95/2/1 96/1/1
f 97/7/1 98/8/1 99/2/1 100/1/1
f 101/7/1 102/8/1 103/2/1 104/1/1
f 105/7/1 106/8/1 107/2/1 108/1/1
f 109/7/1 110/8/1 111/2/1 112/1/1
f 113/7/1 114/8/1 115/2/1 116/1/1
f 117/7/1 118/8/1 119/2/1 120/1/1
f 121/7/1 122/8/1 123/2/1 124/1/1
f 125/8/1 126/9/1 127/5/1 128/2/1
f 129/10/1 130/11/1 131/8/1 132/7/1
f 133/11/1 134/12/1 135/9/1 136/8/1
f 137/10/1 138/11/1 139/8/1 140/7/1
f 141/10/1 142/11/1 143/8/1 144/7/1
f 145/1/1 146/2/1 147/3/1 148/4/1
f 149/1/1 150/2/1 151/3/1 152/4/1
f 153/1/1 154/2/1 155/3/1 156/4/1
f 157/1/1 158/2/1 159/3/1 160/4/1
f 161/1/1 162/2/1 163/3/1 164/4/1
f 165/1/1 166/2/1 167/3/1 168/4/1
f 169/1/1 170/2/1 171/3/1 172/4/1
f 173/2/1 174/5/1 175/6/1 176/3/1
f 177/10/1 178/11/1 179/8/1 180/7/1
f 181/10/1 182/11/1 183/8/1 184/7/1
f 185/10/1 186/11/1 187/8/1 188/7/1
f 189/11/1 190/12/1 191/9/1 192/8/1
f 193/1/1 194/2/1 195/3/1 196/4/1
f 197/2/1 198/5/1 199/6/1 200/3/1
f 201/1/1 202/2/1 203/3/1 204/4/1
f 205/1/1 206/2/1 207/3/1 208/4/1
f 209/7/1 210/8/1 211/2/1 212/1/1
f 213/7/1 214/8/1 215/2/1 216/1/1
f 217/7/1 218/8/1 219/2/1 220/1/1
f 221/7/1 222/8/1 223/2/1 224/1/1
f 225/7/1 226/8/1 227/2/1 228/1/1
f 229/7/1 230/8/1 231/2/1 232/1/1
f 233/1/1 234/2/1 235/3/1 236/4/1
f 237/2/1 238/5/1 239/6/1 240/3/1
f 241/1/1 242/2/1 243/3/1 244/4/1
f 245/2/1 246/5/1 247/6/1 248/3/1
f 249/1/1 250/2/1 251/3/1 252/4/1
f 253/2/1 254/5/1 255/6/1 256/3/1
f 257/7/1 258/8/1 259/2/1 260/1/1
f 261/8/1 262/9/1 263/5/1 264/2/1
f 265/7/1 266/8/1 267/2/1 268/1/1
f 269/7/1 270/8/1 271/2/1 272/1/1
f 273/10/1 274/11/1 275/8/1 276/7/1
f 277/10/1 278/11/1 279/8/1 280/7/1
f 281/1/1 282/2/1 283/3/1 284/4/1
f 285/1/1 286/2/1 287/3/1 288/4/1
f 289/1/1 290/2/1 291/3/1 292/4/1
f 293/1/1 294/2/1 295/3/1 296/4/1
f 297/2/1 298/5/1 299/6/1 300/3/1
f 301/8/1 302/9/1 303/5/1 304/2/1
f 305/7/1 306/8/1 307/2/1 308/1/1
f 309/8/1 310/9/1 311/5/1 312/2/1
f 313/7/1 314/8/1 315/2/1 316/1/1
f 317/8/1 318/9/1 319/5/1 320/2/1
f 321/10/1 322/11/1 323/8/1 324/7/1
f 325/11/1 326/12/1 327/9/1 328/8/1
f 329/10/1 330/11/1 331/8/1 332/7/1
f 333/10/1 334/11/1 335/8/1 336/7/1
f 337/10/1 338/11/1 339/8/1 340/7/1
f 341/11/1 342/12/1 343/9/1 344/8/1
f 345/7/1 346/8/1 347/2/1 348/1/1
f 349/7/1 350/8/1 351/2/1 352/1/1
f 353/7/1 354/8/1 355/2/1 356/1/1
f 357/7/1 358/8/1 359/2/1 360/1/1
f 361/8/1 362/9/1 363/5/1 364/2/1
f 365/11/1 366/12/1 367/9/1 368/8/1
f 369/10/1 370/11/1 371/8/1 372/7/1
f 373/11/1 374/12/1 375/9/1 376/8/1
f 377/10/1 378/11/1 379/8/1 380/7/1
f 381/11/1 382/12/1 383/9/1 384/8/1
f 385/1/1 386/2/1 387/3/1 388/4/1
f 389/1/1 390/2/1 391/3/1 392/4/1
f 393/2/1 394/5/1 395/6/1 396/3/1
f 397/1/1 398/2/1 399/3/1 400/4/1
f 401/2/1 402/5/1 403/6/1 404/3/1
f 405/1/1 406/2/1 407/3/1 408/4/1
f 409/2/1 410/5/1 411/6/1 412/3/1
f 413/1/1 414/2/1 415/3/1 416/4/1
f 417/2/1 418/5/1 419/6/1 420/3/1
f 421/10/1 422/11/1 423/8/1 424/7/1
f 425/11/1 426/12/1 427/9/1 428/8/1
f 429/1/1 430/2/1 431/3/1 432/4/1
f 433/2/1 434/5/1 435/6/1 436/3/1
f 437/2/1 438/5/1 439/6/1 440/3/1
f 441/1/1 442/2/1 443/3/1 444/4/1
f 445/2/1 446/5/1 447/6/1 448/3/1
f 449/7/1 450/8/1 451/2/1 452/1/1
f 453/7/1 454/8/1 455/2/1 456/1/1
f 457/8/1 458/9/1 459/5/1 460/2/1
f 461/7/1 462/8/1 463/2/1 464/1/1
f 465/8/1 466/9/1 467/5/1 468/2/1
f 469/7/1 470/8/1 471/2/1 472/1/1
f 473/8/1 474/9/1 475/5/1 476/2/1
f 477/7/1 478/8/1 479/2/1 480/1/1
f 481/8/1 482/9/1 483/5/1 484/2/1
f 485/7/1 486/8/1 487/2/1 488/1/1
f 489/8/1 490/9/1 491/5/1 492/2/1
f 493/1/1 494/2/1 495/3/1 496/4/1
f 497/2/1 498/5/1 499/6/1 500/3/1
f 501/8/1 502/9/1 503/5/1 504/2/1
f 505/7/1 506/8/1 507/2/1 508/1/1
f 509/8/1 510/9/1 511/5/1 512/2/1
f 513/10/1 514/11/1 515/8/1 516/7/1
f 517/10/1 518/11/1 519/8/1 520/7/1
f 521/11/1 522/12/1 523/9/1 524/8/1
f 525/10/1 526/11/1 527/8/1 528/7/1
f 529/11/1 530/12/1 531/9/1 532/8/1
f 533/10/1 534/11/1 535/8/1 536/7/1
f 537/11/1 538/12/1 539/9/1 540/8/1
f 541/10/1 542/11/1 543/8/1 544/7/1
f 545/11/1 546/12/1 547/9/1 548/8/1
f 549/10/1 550/11/1 551/8/1 552/7/1
f 553/11/1 554/12/1 555/9/1 556/8/1
f 557/7/1 558/8/1 559/2/1 560/1/1
f 561/8/1 562/9/1 563/5/1 564/2/1
f 565/11/1 566/12/1 567/9/1 568/8/1
f 569/10/1 570/11/1 571/8/1 572/7/1
f 573/11/1 574/12/1 575/9/1 576/8/1
f 577/10/1 578/11/1 579/8/1 580/7/1
f 581/11/1 582/12/1 583/9/1 584/8/1

