# Tiled2Unity generated file. Do not modify by hand.
# Wavefront file for 'test2_mesh_0007.obj'

# Vertices (Count = 120)
v -1376 -1504 0
v -1408 -1504 0
v -1408 -1472 0
v -1376 -1472 0
v -1408 -1504 0
v -1440 -1504 0
v -1440 -1472 0
v -1408 -1472 0
v -1440 -1504 0
v -1472 -1504 0
v -1472 -1472 0
v -1440 -1472 0
v -1472 -1504 0
v -1504 -1504 0
v -1504 -1472 0
v -1472 -1472 0
v -1664 -1504 0
v -1696 -1504 0
v -1696 -1472 0
v -1664 -1472 0
v -1696 -1504 0
v -1728 -1504 0
v -1728 -1472 0
v -1696 -1472 0
v -1728 -1504 0
v -1760 -1504 0
v -1760 -1472 0
v -1728 -1472 0
v -1760 -1504 0
v -1792 -1504 0
v -1792 -1472 0
v -1760 -1472 0
v -1376 -1536 0
v -1408 -1536 0
v -1408 -1504 0
v -1376 -1504 0
v -1408 -1536 0
v -1440 -1536 0
v -1440 -1504 0
v -1408 -1504 0
v -1440 -1536 0
v -1472 -1536 0
v -1472 -1504 0
v -1440 -1504 0
v -1472 -1536 0
v -1504 -1536 0
v -1504 -1504 0
v -1472 -1504 0
v -1504 -1536 0
v -1536 -1536 0
v -1536 -1504 0
v -1504 -1504 0
v -1536 -1536 0
v -1568 -1536 0
v -1568 -1504 0
v -1536 -1504 0
v -1664 -1536 0
v -1696 -1536 0
v -1696 -1504 0
v -1664 -1504 0
v -1696 -1536 0
v -1728 -1536 0
v -1728 -1504 0
v -1696 -1504 0
v -1728 -1536 0
v -1760 -1536 0
v -1760 -1504 0
v -1728 -1504 0
v -1760 -1536 0
v -1792 -1536 0
v -1792 -1504 0
v -1760 -1504 0
v -1376 -1568 0
v -1408 -1568 0
v -1408 -1536 0
v -1376 -1536 0
v -1408 -1568 0
v -1440 -1568 0
v -1440 -1536 0
v -1408 -1536 0
v -1440 -1568 0
v -1472 -1568 0
v -1472 -1536 0
v -1440 -1536 0
v -1472 -1568 0
v -1504 -1568 0
v -1504 -1536 0
v -1472 -1536 0
v -1504 -1568 0
v -1536 -1568 0
v -1536 -1536 0
v -1504 -1536 0
v -1536 -1568 0
v -1568 -1568 0
v -1568 -1536 0
v -1536 -1536 0
v -1664 -1568 0
v -1696 -1568 0
v -1696 -1536 0
v -1664 -1536 0
v -1696 -1568 0
v -1728 -1568 0
v -1728 -1536 0
v -1696 -1536 0
v -1728 -1568 0
v -1760 -1568 0
v -1760 -1536 0
v -1728 -1536 0
v -1760 -1568 0
v -1792 -1568 0
v -1792 -1536 0
v -1760 -1536 0
v -1792 -1664 0
v -1824 -1664 0
v -1824 -1632 0
v -1792 -1632 0
v -1792 -1696 0
v -1824 -1696 0
v -1824 -1664 0
v -1792 -1664 0

# Texture cooridinates (Count = 33)
vt 0.5 0.625
vt 0.5625 0.625
vt 0.5625 0.6875
vt 0.5 0.6875
vt 0.625 0.625
vt 0.625 0.6875
vt 0.6875 0.625
vt 0.6875 0.6875
vt 0.75 0.625
vt 0.75 0.6875
vt 0.5 0.5625
vt 0.5625 0.5625
vt 0.625 0.5625
vt 0.6875 0.5625
vt 0.75 0.5625
vt 0.6875 0.75
vt 0.75 0.75
vt 0.75 0.8125
vt 0.6875 0.8125
vt 0.8125 0.75
vt 0.8125 0.8125
vt 0.5 0.5
vt 0.5625 0.5
vt 0.625 0.5
vt 0.6875 0.5
vt 0.75 0.5
vt 0.8125 0.6875
vt 0.875 0.375
vt 0.9375 0.375
vt 0.9375 0.4375
vt 0.875 0.4375
vt 0.875 0.3125
vt 0.9375 0.3125

# Normal
vn 0 0 -1

# Mesh description
g test2_mesh_0007

# Faces
f 1/1/1 2/2/1 3/3/1 4/4/1
f 5/2/1 6/5/1 7/6/1 8/3/1
f 9/5/1 10/7/1 11/8/1 12/6/1
f 13/7/1 14/9/1 15/10/1 16/8/1
f 17/1/1 18/2/1 19/3/1 20/4/1
f 21/2/1 22/5/1 23/6/1 24/3/1
f 25/5/1 26/7/1 27/8/1 28/6/1
f 29/7/1 30/9/1 31/10/1 32/8/1
f 33/11/1 34/12/1 35/2/1 36/1/1
f 37/12/1 38/13/1 39/5/1 40/2/1
f 41/13/1 42/14/1 43/7/1 44/5/1
f 45/14/1 46/15/1 47/9/1 48/7/1
f 49/16/1 50/17/1 51/18/1 52/19/1
f 53/17/1 54/20/1 55/21/1 56/18/1
f 57/11/1 58/12/1 59/2/1 60/1/1
f 61/12/1 62/13/1 63/5/1 64/2/1
f 65/13/1 66/14/1 67/7/1 68/5/1
f 69/14/1 70/15/1 71/9/1 72/7/1
f 73/22/1 74/23/1 75/12/1 76/11/1
f 77/23/1 78/24/1 79/13/1 80/12/1
f 81/24/1 82/25/1 83/14/1 84/13/1
f 85/25/1 86/26/1 87/15/1 88/14/1
f 89/8/1 90/10/1 91/17/1 92/16/1
f 93/10/1 94/27/1 95/20/1 96/17/1
f 97/22/1 98/23/1 99/12/1 100/11/1
f 101/23/1 102/24/1 103/13/1 104/12/1
f 105/24/1 106/25/1 107/14/1 108/13/1
f 109/25/1 110/26/1 111/15/1 112/14/1
f 113/28/1 114/29/1 115/30/1 116/31/1
f 117/32/1 118/33/1 119/29/1 120/28/1

