# Tiled2Unity generated file. Do not modify by hand.
# Wavefront file for 'test2_mesh_0009.obj'

# Vertices (Count = 20)
v -1408 -1632 0
v -1440 -1632 0
v -1440 -1600 0
v -1408 -1600 0
v -1440 -1632 0
v -1472 -1632 0
v -1472 -1600 0
v -1440 -1600 0
v -1408 -1664 0
v -1440 -1664 0
v -1440 -1632 0
v -1408 -1632 0
v -1440 -1664 0
v -1472 -1664 0
v -1472 -1632 0
v -1440 -1632 0
v -1472 -1664 0
v -1504 -1664 0
v -1504 -1632 0
v -1472 -1632 0

# Texture cooridinates (Count = 9)
vt 0.5625 0.75
vt 0.625 0.75
vt 0.625 0.8125
vt 0.5625 0.8125
vt 0.6875 0.75
vt 0.6875 0.8125
vt 0.5625 0.6875
vt 0.625 0.6875
vt 0.6875 0.6875

# Normal
vn 0 0 -1

# Mesh description
g test2_mesh_0009

# Faces
f 1/1/1 2/2/1 3/3/1 4/4/1
f 5/2/1 6/5/1 7/6/1 8/3/1
f 9/7/1 10/8/1 11/2/1 12/1/1
f 13/8/1 14/9/1 15/5/1 16/2/1
f 17/2/1 18/5/1 19/6/1 20/3/1

