# Tiled2Unity generated file. Do not modify by hand.
# Wavefront file for 'test2_mesh_0011.obj'

# Vertices (Count = 16)
v -1504 -1600 0
v -1536 -1600 0
v -1536 -1568 0
v -1504 -1568 0
v -1504 -1632 0
v -1536 -1632 0
v -1536 -1600 0
v -1504 -1600 0
v -1760 -1632 0
v -1792 -1632 0
v -1792 -1600 0
v -1760 -1600 0
v -1760 -1664 0
v -1792 -1664 0
v -1792 -1632 0
v -1760 -1632 0

# Texture cooridinates (Count = 12)
vt 0.3478261 0.9375
vt 0.4057971 0.9375
vt 0.4057971 1
vt 0.3478261 1
vt 0.3478261 0.875
vt 0.4057971 0.875
vt 0.7536232 0.6875
vt 0.8115942 0.6875
vt 0.8115942 0.75
vt 0.7536232 0.75
vt 0.7536232 0.625
vt 0.8115942 0.625

# Normal
vn 0 0 -1

# Mesh description
g test2_mesh_0011

# Faces
f 1/1/1 2/2/1 3/3/1 4/4/1
f 5/5/1 6/6/1 7/2/1 8/1/1
f 9/7/1 10/8/1 11/9/1 12/10/1
f 13/11/1 14/12/1 15/8/1 16/7/1

